<svg width="107" height="116" viewBox="0 0 107 116" fill="none" xmlns="http://www.w3.org/2000/svg">
<path d="M40 83.5C40 76.0442 46.0442 70 53.5 70C60.9558 70 67 76.0442 67 83.5C67 90.9558 60.9558 97 53.5 97C46.0442 97 40 90.9558 40 83.5Z" fill="#9E7355"/>
<path d="M73.8887 90H53L73.8887 43V90Z" fill="#FFE800"/>
<path d="M53 90H32V43L53 90Z" fill="#FFE800"/>
<path d="M15.2203 34V23.0909H19.5882C20.3908 23.0909 21.0602 23.2099 21.5964 23.4478C22.1326 23.6857 22.5357 24.016 22.8055 24.4386C23.0754 24.8576 23.2104 25.3406 23.2104 25.8874C23.2104 26.3136 23.1252 26.6882 22.9547 27.0114C22.7842 27.331 22.5499 27.5937 22.2516 27.7997C21.9568 28.0021 21.6195 28.146 21.2395 28.2312V28.3377C21.655 28.3555 22.0438 28.4727 22.406 28.6893C22.7718 28.9059 23.0683 29.2095 23.2956 29.6001C23.5229 29.9872 23.6365 30.4489 23.6365 30.9851C23.6365 31.5639 23.4927 32.0806 23.2051 32.5352C22.921 32.9862 22.5002 33.343 21.9426 33.6058C21.3851 33.8686 20.6979 34 19.8812 34H15.2203ZM17.5268 32.1143H19.4071C20.0499 32.1143 20.5186 31.9918 20.8134 31.7468C21.1081 31.4982 21.2555 31.168 21.2555 30.756C21.2555 30.4542 21.1827 30.1879 21.0371 29.957C20.8915 29.7262 20.6837 29.5451 20.4139 29.4137C20.1475 29.2823 19.8297 29.2166 19.4604 29.2166H17.5268V32.1143ZM17.5268 27.6559H19.2367C19.5527 27.6559 19.8332 27.6009 20.0783 27.4908C20.3269 27.3771 20.5222 27.2173 20.6642 27.0114C20.8098 26.8054 20.8826 26.5586 20.8826 26.271C20.8826 25.8768 20.7423 25.5589 20.4618 25.3175C20.1848 25.076 19.7906 24.9553 19.2793 24.9553H17.5268V27.6559ZM26.7176 34H24.246L28.012 23.0909H30.9843L34.745 34H32.2734L29.5408 25.5838H29.4556L26.7176 34ZM26.5632 29.712H32.4012V31.5124H26.5632V29.712ZM44.8827 23.0909V34H42.8905L38.1444 27.1339H38.0645V34H35.758V23.0909H37.7822L42.491 29.9517H42.5869V23.0909H44.8827ZM48.3686 34H45.897L49.663 23.0909H52.6353L56.396 34H53.9244L51.1918 25.5838H51.1065L48.3686 34ZM48.2141 29.712H54.0522V31.5124H48.2141V29.712ZM69.7053 23.0909V34H67.7131L62.967 27.1339H62.8871V34H60.5807V23.0909H62.6048L67.3136 29.9517H67.4095V23.0909H69.7053ZM78.0492 23.0909H80.3557V30.1754C80.3557 30.9709 80.1657 31.6669 79.7857 32.2635C79.4093 32.8601 78.882 33.3253 78.2037 33.6591C77.5254 33.9893 76.7353 34.1545 75.8333 34.1545C74.9278 34.1545 74.1359 33.9893 73.4576 33.6591C72.7793 33.3253 72.252 32.8601 71.8756 32.2635C71.4992 31.6669 71.3109 30.9709 71.3109 30.1754V23.0909H73.6174V29.9783C73.6174 30.3938 73.708 30.7631 73.8891 31.0863C74.0737 31.4094 74.333 31.6634 74.6668 31.848C75.0006 32.0327 75.3894 32.125 75.8333 32.125C76.2808 32.125 76.6696 32.0327 76.9999 31.848C77.3337 31.6634 77.5911 31.4094 77.7722 31.0863C77.9569 30.7631 78.0492 30.3938 78.0492 29.9783V23.0909ZM84.116 23.0909L86.3159 26.8089H86.4011L88.6117 23.0909H91.2165L87.8873 28.5455L91.291 34H88.6383L86.4011 30.2766H86.3159L84.0787 34H81.4366L84.8511 28.5455L81.5006 23.0909H84.116Z" fill="#FFFFFF"/>
</svg>
